<?xml version="1.0" encoding="UTF-8" standalone="no" ?>
<!DOCTYPE svg PUBLIC "-//W3C//DTD SVG 1.1//EN" "http://www.w3.org/Graphics/SVG/1.1/DTD/svg11.dtd">
<svg xmlns="http://www.w3.org/2000/svg" xmlns:xlink="http://www.w3.org/1999/xlink" version="1.1" width="1280" height="1024" viewBox="0 0 1280 1024" xml:space="preserve">
<desc>Created with Fabric.js 5.3.0</desc>
<defs>
</defs>
<g transform="matrix(1 0 0 1 640 512)" id="background-logo"  >
<rect style="stroke: none; stroke-width: 0; stroke-dasharray: none; stroke-linecap: butt; stroke-dashoffset: 0; stroke-linejoin: miter; stroke-miterlimit: 4; fill: rgb(255,255,255); fill-rule: nonzero; opacity: 1;"  paint-order="stroke"  x="-640" y="-512" rx="0" ry="0" width="1280" height="1024" />
</g>
<g transform="matrix(1.9211538461538462 0 0 1.9211538461538462 653.4795609981678 449.5967235825235)" id="text-logo"  >
<g style=""  paint-order="stroke"   >
		<g transform="matrix(1 0 0 1 0 0)" id="text-logo-path-0"  >
<path style="stroke: rgb(0,0,0); stroke-width: 20; stroke-dasharray: none; stroke-linecap: butt; stroke-dashoffset: 0; stroke-linejoin: miter; stroke-miterlimit: 4; fill: rgb(92,224,230); fill-rule: nonzero; opacity: 1;"  paint-order="stroke"  transform=" translate(-80.07, 13.735000000000001)" d="M 2.16 -19.5 L 2.16 -19.5 Q 2.16 -21.71 2.95 -23.22 Q 3.73 -24.73 4.93 -25.67 Q 6.12 -26.61 7.52 -27.03 Q 8.91 -27.45 10.13 -27.45 L 10.13 -27.45 L 26.36 -27.45 L 26.36 -20.85 L 10.18 -20.85 Q 9.67 -20.85 9.38 -20.73 Q 9.09 -20.62 8.95 -20.43 Q 8.81 -20.24 8.79 -20.02 Q 8.76 -19.8 8.76 -19.6 L 8.76 -19.6 Q 8.79 -19.2 8.91 -18.97 Q 9.04 -18.74 9.23 -18.64 Q 9.42 -18.54 9.66 -18.52 Q 9.9 -18.51 10.13 -18.51 L 10.13 -18.51 L 20.36 -18.51 Q 22.9 -18.51 24.68 -17.6 Q 26.46 -16.68 27.55 -15.3 Q 28.64 -13.91 29.14 -12.29 Q 29.63 -10.66 29.63 -9.27 L 29.63 -9.27 Q 29.63 -7.57 29.2 -6.21 Q 28.77 -4.85 28.06 -3.82 Q 27.35 -2.79 26.41 -2.07 Q 25.47 -1.35 24.44 -0.89 Q 23.41 -0.43 22.36 -0.22 Q 21.3 0 20.36 0 L 20.36 0 L 2.49 0 L 2.49 -6.6 L 20.31 -6.6 Q 21.66 -6.6 22.34 -7.29 Q 23.03 -7.97 23.03 -9.27 L 23.03 -9.27 Q 22.9 -11.91 20.36 -11.91 L 20.36 -11.91 L 10.13 -11.91 Q 7.95 -11.91 6.42 -12.67 Q 4.9 -13.43 3.95 -14.57 Q 3 -15.72 2.58 -17.04 Q 2.16 -18.36 2.16 -19.5 Z M 29.68 -3.33 L 29.68 -3.33 L 29.68 -27.45 L 36.28 -27.45 L 36.28 -11.81 L 49.43 -26.51 Q 50.14 -27.22 51.11 -27.42 L 51.11 -27.42 Q 51.41 -27.47 51.74 -27.47 L 51.74 -27.47 Q 52.4 -27.47 53.04 -27.19 L 53.04 -27.19 Q 53.97 -26.81 54.52 -25.99 Q 55.07 -25.16 55.07 -24.17 L 55.07 -24.17 L 55.07 -8.48 Q 57.2 -10.54 58.93 -12.82 Q 60.65 -15.11 62.14 -17.53 Q 63.62 -19.96 64.93 -22.46 Q 66.24 -24.96 67.48 -27.45 L 67.48 -27.45 L 74.87 -27.45 Q 73.3 -23.92 71.47 -20.5 Q 69.64 -17.09 67.65 -14.04 Q 65.65 -10.99 63.57 -8.42 Q 61.49 -5.84 59.45 -3.97 Q 57.4 -2.11 55.46 -1.05 Q 53.52 0 51.79 0 L 51.79 0 Q 51.08 0 50.47 -0.25 Q 49.86 -0.51 49.4 -0.95 Q 48.95 -1.4 48.69 -2.01 Q 48.44 -2.62 48.44 -3.33 L 48.44 -3.33 L 48.44 -15.64 L 35.34 -0.99 Q 34.83 -0.48 34.23 -0.24 Q 33.64 0 33 0 L 33 0 Q 32.32 0 31.72 -0.25 Q 31.12 -0.51 30.67 -0.95 Q 30.21 -1.4 29.94 -2.01 Q 29.68 -2.62 29.68 -3.33 Z M 69.71 -9.09 L 69.71 -9.09 Q 69.71 -10.46 70.19 -12.06 Q 70.68 -13.66 71.76 -15.02 Q 72.83 -16.38 74.57 -17.29 Q 76.31 -18.21 78.8 -18.21 L 78.8 -18.21 L 90.71 -18.21 L 90.71 -11.91 L 78.8 -11.91 Q 77.46 -11.91 76.72 -11.08 Q 75.98 -10.26 75.98 -9.04 L 75.98 -9.04 Q 75.98 -7.74 76.83 -7.02 Q 77.68 -6.3 78.85 -6.3 L 78.85 -6.3 L 90.71 -6.3 Q 92.06 -6.3 92.79 -7.11 Q 93.53 -7.92 93.53 -9.14 L 93.53 -9.14 L 93.53 -18.36 Q 93.53 -19.65 92.73 -20.41 Q 91.93 -21.18 90.71 -21.18 L 90.71 -21.18 L 76.21 -21.18 L 76.21 -27.45 L 90.71 -27.45 Q 92.08 -27.45 93.67 -26.96 Q 95.25 -26.48 96.61 -25.4 Q 97.97 -24.32 98.89 -22.58 Q 99.8 -20.85 99.8 -18.36 L 99.8 -18.36 L 99.8 -9.09 Q 99.8 -7.72 99.32 -6.13 Q 98.83 -4.54 97.76 -3.19 Q 96.68 -1.83 94.94 -0.91 Q 93.2 0 90.71 0 L 90.71 0 L 78.8 0 Q 77.43 0 75.84 -0.48 Q 74.26 -0.96 72.9 -2.04 Q 71.54 -3.12 70.63 -4.86 Q 69.71 -6.6 69.71 -9.09 Z M 100.3 -9.27 L 100.3 -9.27 L 100.3 -18.21 Q 100.3 -19.14 100.52 -20.19 Q 100.73 -21.23 101.19 -22.25 Q 101.65 -23.28 102.37 -24.22 Q 103.09 -25.16 104.12 -25.87 Q 105.15 -26.58 106.5 -27.02 Q 107.84 -27.45 109.54 -27.45 L 109.54 -27.45 L 127.44 -27.45 L 127.44 -20.85 L 109.54 -20.85 Q 108.25 -20.85 107.58 -20.19 Q 106.9 -19.53 106.9 -18.15 L 106.9 -18.15 L 106.9 -9.27 Q 106.9 -7.97 107.59 -7.29 Q 108.27 -6.6 109.59 -6.6 L 109.59 -6.6 L 127.44 -6.6 L 127.44 0 L 109.54 0 Q 108.17 0 106.55 -0.48 Q 104.92 -0.96 103.54 -2.07 Q 102.15 -3.17 101.23 -4.94 Q 100.3 -6.7 100.3 -9.27 Z M 127.57 -9.27 L 127.57 -9.27 L 127.57 -18.21 Q 127.57 -20.74 128.49 -22.51 Q 129.42 -24.27 130.8 -25.38 Q 132.19 -26.48 133.81 -26.96 Q 135.44 -27.45 136.81 -27.45 L 136.81 -27.45 L 148.72 -27.45 Q 151.25 -27.45 153.03 -26.53 Q 154.81 -25.62 155.9 -24.24 Q 156.99 -22.85 157.49 -21.23 Q 157.98 -19.6 157.98 -18.21 L 157.98 -18.21 L 157.98 -9.27 Q 157.98 -7.57 157.55 -6.21 Q 157.12 -4.85 156.41 -3.82 Q 155.7 -2.79 154.76 -2.07 Q 153.82 -1.35 152.79 -0.89 Q 151.76 -0.43 150.71 -0.22 Q 149.65 0 148.72 0 L 148.72 0 L 136.81 0 Q 135.44 0 133.81 -0.48 Q 132.19 -0.96 130.8 -2.07 Q 129.42 -3.17 128.49 -4.94 Q 127.57 -6.7 127.57 -9.27 Z M 134.17 -18.21 L 134.17 -9.27 Q 134.17 -7.97 134.85 -7.29 Q 135.54 -6.6 136.86 -6.6 L 136.86 -6.6 L 148.72 -6.6 Q 150.06 -6.6 150.72 -7.29 Q 151.38 -7.97 151.38 -9.27 L 151.38 -9.27 L 151.38 -18.15 Q 151.38 -19.53 150.7 -20.19 Q 150.01 -20.85 148.72 -20.85 L 148.72 -20.85 L 136.86 -20.85 Q 135.54 -20.85 134.85 -20.17 Q 134.17 -19.5 134.17 -18.21 L 134.17 -18.21 Z" stroke-linecap="round" />
</g>
</g>
</g>
</svg>